<?xml version="1.0" encoding="iso-8859-1"?>
<!-- Generator: Adobe Illustrator 21.0.0, SVG Export Plug-In . SVG Version: 6.00 Build 0)  -->
<svg version="1.1" id="Capa_1" xmlns="http://www.w3.org/2000/svg" xmlns:xlink="http://www.w3.org/1999/xlink" x="0px" y="0px"
	 viewBox="0 0 511.999 511.999" style="enable-background:new 0 0 511.999 511.999;" xml:space="preserve">

	 <style>
	 	path{
			fill:#4fd171;
		}
	 </style>
<g>
	<g>
		<path d="M360.7,251.482c-28.132-28.036-65.482-43.363-105.224-43.262c-81.5,0.282-147.806,67.471-147.806,149.776v20.963
			c0,29.648,15.198,56.418,40.656,71.611c25.456,15.193,56.234,15.863,82.327,1.789c15.87-8.56,34.821-8.56,50.692,0
			c12.5,6.743,26.07,10.101,39.621,10.1c14.734-0.001,29.445-3.974,42.707-11.889c25.457-15.193,40.656-41.964,40.656-71.611v-22.41
			C404.327,316.832,388.834,279.519,360.7,251.482z M374.326,378.96L374.326,378.96c-0.001,18.981-9.731,36.121-26.03,45.848
			c-16.297,9.729-36.003,10.156-52.709,1.146c-12.397-6.686-25.989-10.027-39.589-10.027c-13.595,0-27.194,3.343-39.588,10.027
			c-16.708,9.01-36.413,8.581-52.71-1.146c-16.299-9.728-26.029-26.867-26.029-45.848v-20.963
			c0-65.819,52.894-119.549,117.907-119.774c0.142,0,0.28-0.001,0.422-0.001c31.531,0,61.181,12.247,83.523,34.512
			c22.443,22.366,34.803,52.132,34.803,83.816V378.96z"/>
	</g>
</g>
<g>
	<g>
		<path d="M97.75,171.039l-8.028-5.833c-25.214-18.319-60.63-12.709-78.947,12.504h-0.001
			c-18.318,25.213-12.709,60.629,12.505,78.948l8.028,5.833c10.01,7.273,21.628,10.774,33.147,10.774
			c17.493,0,34.756-8.076,45.802-23.278C128.572,224.773,122.963,189.357,97.75,171.039z M85.981,232.352
			c-8.596,11.83-25.213,14.459-37.041,5.867l-8.028-5.833c-11.829-8.595-14.461-25.21-5.866-37.04h-0.001
			c8.595-11.829,25.209-14.462,37.041-5.867l8.028,5.833C91.944,203.906,94.575,220.522,85.981,232.352z"/>
	</g>
</g>
<g>
	<g>
		<path d="M501.225,179.056c-18.318-25.213-53.736-30.824-78.948-12.504l-8.028,5.833c-25.213,18.318-30.823,53.734-12.504,78.948
			c11.047,15.204,28.307,23.278,45.801,23.278c11.517,0,23.138-3.502,33.147-10.774l8.028-5.833
			C513.934,239.685,519.543,204.269,501.225,179.056z M471.085,233.731l-8.028,5.833c-11.83,8.596-28.447,5.962-37.04-5.867
			c-8.595-11.83-5.964-28.447,5.865-37.041l8.028-5.833c4.696-3.412,10.148-5.054,15.552-5.054c8.208,0,16.306,3.788,21.488,10.921
			C485.546,208.52,482.915,225.136,471.085,233.731z"/>
	</g>
</g>
<g>
	<g>
		<path d="M236.618,113.739l-8.161-25.117c-4.664-14.358-14.642-26.04-28.095-32.894c-13.451-6.855-28.768-8.06-43.125-3.394
			c-14.358,4.665-26.041,14.642-32.896,28.094c-6.855,13.452-8.06,28.768-3.394,43.126l8.161,25.117
			c7.753,23.859,29.965,39.06,53.795,39.06c5.773,0,11.646-0.893,17.426-2.771h0.001c14.357-4.665,26.04-14.643,32.895-28.095
			C240.078,143.413,241.283,128.097,236.618,113.739z M206.491,143.243c-3.216,6.312-8.697,10.992-15.434,13.181h0.001
			c-13.908,4.52-28.897-3.119-33.416-17.026l-8.161-25.117c-4.517-13.906,3.119-28.896,17.026-33.414
			c2.713-0.881,5.466-1.3,8.177-1.3c11.18,0,21.602,7.132,25.238,18.326l8.161,25.117
			C210.272,129.747,209.707,136.933,206.491,143.243z"/>
	</g>
</g>
<g>
	<g>
		<path d="M354.761,52.846c-29.641-9.631-61.589,6.649-71.219,36.289l-8.161,25.116c-4.665,14.358-3.46,29.674,3.393,43.126
			c6.854,13.452,18.537,23.43,32.894,28.095c5.783,1.878,11.651,2.771,17.427,2.771c23.828,0,46.042-15.201,53.795-39.06
			l8.161-25.117C400.681,94.426,384.401,62.477,354.761,52.846z M362.515,114.796l-8.161,25.116
			c-4.519,13.906-19.505,21.548-33.416,17.026h0.001c-6.737-2.189-12.218-6.871-15.434-13.181
			c-3.214-6.311-3.779-13.496-1.591-20.233l8.161-25.117c4.518-13.907,19.515-21.543,33.414-17.026
			C359.396,85.9,367.034,100.89,362.515,114.796z"/>
	</g>
</g>
<g>
</g>
<g>
</g>
<g>
</g>
<g>
</g>
<g>
</g>
<g>
</g>
<g>
</g>
<g>
</g>
<g>
</g>
<g>
</g>
<g>
</g>
<g>
</g>
<g>
</g>
<g>
</g>
<g>
</g>
</svg>
